<svg width="512" height="512" viewBox="0 0 512 512" fill="none" xmlns="http://www.w3.org/2000/svg">
  <!-- Background -->
  <rect x="32" y="32" width="448" height="448" rx="96" fill="#0F172A"/>

  <!-- Field / ground -->
  <path d="M128 328C128 300 384 300 384 328V360C384 388 128 388 128 360V328Z" fill="#1E293B"/>
  <path d="M160 336H352" stroke="#334155" stroke-width="10" stroke-linecap="round"/>
  <path d="M160 362H352" stroke="#334155" stroke-width="10" stroke-linecap="round"/>

  <!-- Scan beam -->
  <path d="M216 212L160 328H352L296 212H216Z" fill="#14B8A6" opacity="0.18"/>
  <path d="M228 224L192 312" stroke="#14B8A6" stroke-width="3" opacity="0.55"/>
  <path d="M256 224L256 312" stroke="#14B8A6" stroke-width="3" opacity="0.55"/>
  <path d="M284 224L320 312" stroke="#14B8A6" stroke-width="3" opacity="0.55"/>

  <!-- Rover body -->
  <rect x="168" y="164" width="176" height="80" rx="24" fill="#0EA5E9"/>
  <rect x="192" y="184" width="128" height="24" rx="12" fill="#0B1220" opacity="0.55"/>

  <!-- Rover wheels -->
  <circle cx="200" cy="260" r="20" fill="#94A3B8"/>
  <circle cx="312" cy="260" r="20" fill="#94A3B8"/>
  <circle cx="200" cy="260" r="10" fill="#0F172A"/>
  <circle cx="312" cy="260" r="10" fill="#0F172A"/>

  <!-- Camera / sensors -->
  <circle cx="224" cy="196" r="10" fill="#F8FAFC"/>
  <circle cx="256" cy="196" r="10" fill="#F8FAFC"/>
  <circle cx="288" cy="196" r="10" fill="#F8FAFC"/>

  <!-- DCI badge -->
  <circle cx="360" cy="140" r="54" fill="#14B8A6"/>
  <path d="M338 140L352 154L384 122" stroke="#0F172A" stroke-width="10" stroke-linecap="round" stroke-linejoin="round"/>
  <text x="360" y="182" text-anchor="middle" font-family="Inter, Arial, sans-serif"
        font-size="22" font-weight="800" fill="#0F172A">DCI</text>

  <!-- CADS text -->
  <text x="256" y="448" text-anchor="middle" font-family="Inter, Arial, sans-serif"
        font-size="46" font-weight="900" fill="#F8FAFC" letter-spacing="1">CADS-Agri</text>
</svg>


